<svg width="35" height="35" viewBox="0 0 35 35" fill="none" xmlns="http://www.w3.org/2000/svg">
<path d="M30.2954 26.25C31.3881 26.25 32.2572 25.5623 33.0376 24.6008C34.6352 22.6325 32.0122 21.0596 31.0119 20.2892C29.9949 19.5061 28.8594 19.0625 27.7082 18.9583M26.2499 16.0417C28.2634 16.0417 29.8957 14.4094 29.8957 12.3958C29.8957 10.3823 28.2634 8.75 26.2499 8.75" stroke="#FCE7CC" stroke-width="2" stroke-linecap="round"/>
<path d="M4.70444 26.25C3.61171 26.25 2.74256 25.5623 1.96217 24.6008C0.364631 22.6325 2.98756 21.0596 3.98794 20.2892C5.00488 19.5061 6.14035 19.0625 7.29159 18.9583M8.02075 16.0417C6.00721 16.0417 4.37492 14.4094 4.37492 12.3958C4.37492 10.3823 6.00721 8.75 8.02075 8.75" stroke="#FCE7CC" stroke-width="2" stroke-linecap="round"/>
<path d="M11.7887 22.0372C10.2986 22.9586 6.39171 24.84 8.77129 27.1942C9.9337 28.3443 11.2283 29.1667 12.856 29.1667H22.1437C23.7714 29.1667 25.066 28.3443 26.2284 27.1942C28.608 24.84 24.7011 22.9586 23.211 22.0372C19.7167 19.8766 15.283 19.8766 11.7887 22.0372Z" stroke="#FCE7CC" stroke-width="2" stroke-linecap="round" stroke-linejoin="round"/>
<path d="M22.604 10.9375C22.604 13.7565 20.3188 16.0417 17.4999 16.0417C14.6809 16.0417 12.3957 13.7565 12.3957 10.9375C12.3957 8.11859 14.6809 5.83337 17.4999 5.83337C20.3188 5.83337 22.604 8.11859 22.604 10.9375Z" stroke="#FCE7CC" stroke-width="2"/>
</svg>
