<svg width="35" height="35" viewBox="0 0 35 35" fill="none" xmlns="http://www.w3.org/2000/svg">
<path d="M7.40936 22.3072C5.63271 23.3821 0.974442 25.5771 3.81164 28.3237C5.19758 29.6654 6.74117 30.625 8.68184 30.625H19.7557C21.6964 30.625 23.24 29.6654 24.6259 28.3237C27.4631 25.5771 22.8048 23.3821 21.0282 22.3072C16.862 19.7864 11.5756 19.7864 7.40936 22.3072Z" stroke="#FCE7CC" stroke-width="2" stroke-linecap="round" stroke-linejoin="round"/>
<path d="M19.6875 10.2083C19.6875 13.43 17.0759 16.0417 13.8542 16.0417C10.6325 16.0417 8.02087 13.43 8.02087 10.2083C8.02087 6.98667 10.6325 4.375 13.8542 4.375C17.0759 4.375 19.6875 6.98667 19.6875 10.2083Z" stroke="#FCE7CC" stroke-width="2"/>
<path d="M24.7917 7.29163L32.0834 7.29163" stroke="#FCE7CC" stroke-width="2" stroke-linecap="round" stroke-linejoin="round"/>
<path d="M24.7917 11.6666L32.0834 11.6666" stroke="#FCE7CC" stroke-width="2" stroke-linecap="round" stroke-linejoin="round"/>
<path d="M29.1667 16.0416L32.0834 16.0416" stroke="#FCE7CC" stroke-width="2" stroke-linecap="round" stroke-linejoin="round"/>
</svg>
