<svg width="35" height="35" viewBox="0 0 35 35" fill="none" xmlns="http://www.w3.org/2000/svg">
<path d="M13.125 25.7031C13.2323 28.4038 15.483 30.697 18.498 30.6233C19.1995 30.6061 20.0665 30.3616 21.8004 29.8725C25.9735 28.6954 29.5961 26.7172 30.4652 22.2856C30.625 21.471 30.625 20.5543 30.625 18.721L30.625 16.279C30.625 14.4457 30.625 13.529 30.4652 12.7144C29.5961 8.28283 25.9735 6.30461 21.8004 5.12754C20.0665 4.63844 19.1995 4.39389 18.498 4.37673C15.483 4.30297 13.2323 6.59614 13.125 9.29688" stroke="#FCE7CC" stroke-width="2" stroke-linecap="round"/>
<path d="M20.4167 17.5H4.375M20.4167 17.5C20.4167 16.4789 17.5083 14.571 16.7708 13.8542M20.4167 17.5C20.4167 18.5212 17.5083 20.429 16.7708 21.1459" stroke="#FCE7CC" stroke-width="2" stroke-linecap="round" stroke-linejoin="round"/>
</svg>
