<svg width="35" height="35" viewBox="0 0 35 35" fill="none" xmlns="http://www.w3.org/2000/svg">
<path d="M21.875 25.7031C21.7677 28.4038 19.517 30.697 16.502 30.6233C15.8005 30.6061 14.9335 30.3616 13.1996 29.8725C9.02652 28.6954 5.40393 26.7172 4.53477 22.2856C4.375 21.471 4.375 20.5543 4.375 18.721L4.375 16.279C4.375 14.4457 4.375 13.529 4.53477 12.7144C5.40393 8.28283 9.02652 6.30461 13.1996 5.12754C14.9335 4.63844 15.8005 4.39389 16.502 4.37673C19.517 4.30297 21.7677 6.59614 21.875 9.29688" stroke="#FCE7CC" stroke-width="2" stroke-linecap="round"/>
<path d="M30.625 17.5H14.5833M30.625 17.5C30.625 16.4788 27.7166 14.5709 26.9791 13.8541M30.625 17.5C30.625 18.5211 27.7166 20.429 26.9791 21.1458" stroke="#FCE7CC" stroke-width="2" stroke-linecap="round" stroke-linejoin="round"/>
</svg>
