<svg width="43" height="49" viewBox="0 0 43 49" fill="none" xmlns="http://www.w3.org/2000/svg">
<path d="M6.496 24.088L7.2 23.896C6.048 19.2027 5.728 15.32 6.24 12.248C6.752 9.13333 7.84 6.85066 9.504 5.4C11.168 3.94933 13.1733 3.224 15.52 3.224C19.0613 3.224 22.176 4.39733 24.864 6.744C27.5093 9.09067 29.5573 12.12 31.008 15.832C32.416 19.5013 33.12 23.32 33.12 27.288C33.12 31.128 32.416 34.4347 31.008 37.208C29.6 39.9387 27.744 42.008 25.44 43.416C23.0933 44.7813 20.5973 45.464 17.952 45.464C15.4773 45.464 13.088 44.8453 10.784 43.608C8.48 42.328 6.496 40.4293 4.832 37.912C3.168 35.352 2.03733 32.2587 1.44 28.632H0.671997V40.664C2.93333 42.9253 5.6 44.7173 8.672 46.04C11.744 47.3627 15.0293 48.024 18.528 48.024C22.8373 48.024 26.8053 46.9787 30.432 44.888C34.016 42.7547 36.8533 39.8747 38.944 36.248C41.0347 32.6213 42.08 28.6533 42.08 24.344C42.08 20.0347 41.0347 16.0667 38.944 12.44C36.8533 8.81333 34.016 5.95467 30.432 3.864C26.8053 1.73066 22.8373 0.663998 18.528 0.663998C15.0293 0.663998 11.744 1.32533 8.672 2.648C5.6 3.97066 2.93333 5.76266 0.671997 8.024L6.496 24.088Z" fill="#374536"/>
</svg>
