<svg width="35" height="35" viewBox="0 0 35 35" fill="none" xmlns="http://www.w3.org/2000/svg">
<path d="M16.0416 18.9583H23.3333M11.6666 18.9583H11.6797M18.9583 24.7916H11.6666M23.3333 24.7916H23.3202" stroke="#FCE7CC" stroke-width="2" stroke-linecap="round" stroke-linejoin="round"/>
<path d="M26.25 2.91663V5.83329M8.75 2.91663V5.83329" stroke="#FCE7CC" stroke-width="2" stroke-linecap="round" stroke-linejoin="round"/>
<path d="M3.64581 17.8547C3.64581 11.5003 3.64581 8.32312 5.47182 6.34906C7.29783 4.375 10.2367 4.375 16.1146 4.375H18.8854C24.7632 4.375 27.7021 4.375 29.5281 6.34906C31.3541 8.32312 31.3541 11.5003 31.3541 17.8547V18.6036C31.3541 24.958 31.3541 28.1352 29.5281 30.1093C27.7021 32.0833 24.7632 32.0833 18.8854 32.0833H16.1146C10.2367 32.0833 7.29783 32.0833 5.47182 30.1093C3.64581 28.1352 3.64581 24.958 3.64581 18.6036V17.8547Z" stroke="#FCE7CC" stroke-width="2" stroke-linecap="round" stroke-linejoin="round"/>
<path d="M4.375 11.6666H30.625" stroke="#FCE7CC" stroke-width="2" stroke-linecap="round" stroke-linejoin="round"/>
</svg>
