<svg width="35" height="35" viewBox="0 0 35 35" fill="none" xmlns="http://www.w3.org/2000/svg">
<path d="M18.9584 21.875C15.6163 30.625 6.2587 21.875 2.91669 30.625" stroke="#FCE7CC" stroke-width="2" stroke-linecap="round" stroke-linejoin="round"/>
<path d="M22.6042 21.875H24.7936C28.2309 21.875 29.9495 21.875 31.0174 20.8072C32.0852 19.7393 32.0852 18.0207 32.0852 14.5833V11.6667C32.0852 8.22934 32.0852 6.51068 31.0174 5.44284C29.9495 4.375 28.2309 4.375 24.7936 4.375H18.9602C15.5229 4.375 13.8042 4.375 12.7364 5.44284C11.8316 6.34761 11.6935 7.7196 11.6724 10.2083" stroke="#FCE7CC" stroke-width="2" stroke-linecap="round" stroke-linejoin="round"/>
<circle cx="10.9375" cy="18.2292" r="3.64583" stroke="#FCE7CC" stroke-width="2" stroke-linecap="round" stroke-linejoin="round"/>
<path d="M17.5 10.2084H26.25M26.25 16.0417H21.875" stroke="#FCE7CC" stroke-width="2" stroke-linecap="round" stroke-linejoin="round"/>
</svg>
