<svg width="35" height="35" viewBox="0 0 35 35" fill="none" xmlns="http://www.w3.org/2000/svg">
<path d="M27.1485 29.1667H27.8634C29.5402 29.1667 30.874 28.4027 32.0715 27.3344C35.1138 24.6205 27.9623 21.875 25.5209 21.875M22.6042 7.39197C22.9353 7.32629 23.2792 7.29169 23.632 7.29169C26.286 7.29169 28.4375 9.25044 28.4375 11.6667C28.4375 14.0829 26.286 16.0417 23.632 16.0417C23.2792 16.0417 22.9353 16.0071 22.6042 15.9414" stroke="#FCE7CC" stroke-width="2" stroke-linecap="round"/>
<path d="M6.53525 23.4955C4.81591 24.4169 0.307909 26.2983 3.05358 28.6525C4.39482 29.8025 5.88862 30.625 7.76668 30.625H18.4833C20.3614 30.625 21.8552 29.8025 23.1964 28.6525C25.9421 26.2983 21.4341 24.4169 19.7148 23.4955C15.6829 21.3349 10.5671 21.3349 6.53525 23.4955Z" stroke="#FCE7CC" stroke-width="2"/>
<path d="M18.9583 10.9375C18.9583 14.1592 16.3467 16.7709 13.125 16.7709C9.90334 16.7709 7.29167 14.1592 7.29167 10.9375C7.29167 7.71586 9.90334 5.10419 13.125 5.10419C16.3467 5.10419 18.9583 7.71586 18.9583 10.9375Z" stroke="#FCE7CC" stroke-width="2"/>
</svg>
