<svg width="35" height="35" viewBox="0 0 35 35" fill="none" xmlns="http://www.w3.org/2000/svg">
<path d="M16.7709 20.4336C13.7862 20.2947 10.7674 21.0092 8.13398 22.5773C6.07078 23.8058 0.661177 26.3143 3.95598 29.4533C5.56547 30.9867 7.35803 32.0833 9.6117 32.0833H17.5" stroke="#FCE7CC" stroke-width="2" stroke-linecap="round" stroke-linejoin="round"/>
<path d="M22.6042 9.47913C22.6042 13.1035 19.6661 16.0416 16.0417 16.0416C12.4173 16.0416 9.47919 13.1035 9.47919 9.47913C9.47919 5.85476 12.4173 2.91663 16.0417 2.91663C19.6661 2.91663 22.6042 5.85476 22.6042 9.47913Z" stroke="#FCE7CC" stroke-width="2"/>
<path d="M26.25 30.2082V32.0833M26.25 30.2082C24.563 30.2082 23.0768 29.3796 22.2051 28.1214M26.25 30.2082C27.937 30.2082 29.4233 29.3796 30.295 28.1214M26.25 20.8333C27.9371 20.8333 29.4235 21.662 30.2952 22.9204M26.25 20.8333C24.5629 20.8333 23.0766 21.662 22.2049 22.9204M26.25 20.8333V18.9583M32.0834 21.7708L30.2952 22.9204M20.4173 29.2707L22.2051 28.1214M20.4167 21.7708L22.2049 22.9204M32.0827 29.2707L30.295 28.1214M30.2952 22.9204C30.8106 23.6645 31.1111 24.5588 31.1111 25.5208C31.1111 26.4829 30.8105 27.3773 30.295 28.1214M22.2049 22.9204C21.6894 23.6645 21.3889 24.5588 21.3889 25.5208C21.3889 26.4829 21.6895 27.3773 22.2051 28.1214" stroke="#FCE7CC" stroke-width="2" stroke-linecap="round"/>
</svg>
