<svg width="329" height="28" viewBox="0 0 329 28" fill="none" xmlns="http://www.w3.org/2000/svg">
<path d="M20.096 14.1121L19.7 14.0041C20.348 11.3641 20.528 9.18012 20.24 7.45212C19.952 5.70012 19.34 4.41612 18.404 3.60012C17.468 2.78412 16.34 2.37612 15.02 2.37612C13.028 2.37612 11.276 3.03612 9.764 4.35612C8.276 5.67612 7.124 7.38012 6.308 9.46812C5.516 11.5321 5.12 13.6801 5.12 15.9121C5.12 18.0721 5.516 19.9321 6.308 21.4921C7.1 23.0281 8.144 24.1921 9.44 24.9841C10.76 25.7521 12.164 26.1361 13.652 26.1361C15.044 26.1361 16.388 25.7881 17.684 25.0921C18.98 24.3721 20.096 23.3041 21.032 21.8881C21.968 20.4481 22.604 18.7081 22.94 16.6681H23.372V23.4361C22.1 24.7081 20.6 25.7161 18.872 26.4601C17.144 27.2041 15.296 27.5761 13.328 27.5761C10.904 27.5761 8.672 26.9881 6.632 25.8121C4.616 24.6121 3.02 22.9921 1.844 20.9521C0.668 18.9121 0.08 16.6801 0.08 14.2561C0.08 11.8321 0.668 9.60012 1.844 7.56012C3.02 5.52012 4.616 3.91212 6.632 2.73612C8.672 1.53612 10.904 0.936121 13.328 0.936121C15.296 0.936121 17.144 1.30812 18.872 2.05212C20.6 2.79612 22.1 3.80412 23.372 5.07612L20.096 14.1121ZM43.1562 1.80012V3.56412H43.0123C42.7243 3.49212 42.4363 3.44412 42.1483 3.42012C41.8843 3.37212 41.5483 3.34812 41.1403 3.34812C40.7563 3.32412 40.2883 3.31212 39.7363 3.31212H37.0003L37.5763 2.73612V23.2201C37.5763 23.8681 37.5763 24.4081 37.5763 24.8401C37.6003 25.2481 37.6243 25.5961 37.6483 25.8841C37.6963 26.1481 37.7443 26.4121 37.7923 26.6761L37.8283 26.8561V27.0001H31.9243V26.8561L31.9603 26.6761C32.0083 26.4121 32.0443 26.1481 32.0683 25.8841C32.1163 25.5961 32.1403 25.2481 32.1403 24.8401C32.1643 24.4081 32.1763 23.8681 32.1763 23.2201V2.73612L32.7523 3.31212H30.0163C29.4643 3.31212 28.9843 3.32412 28.5763 3.34812C28.1923 3.34812 27.8563 3.37212 27.5683 3.42012C27.3043 3.44412 27.0283 3.49212 26.7403 3.56412H26.5963V1.80012H43.1562ZM57.5563 27.5761C55.1323 27.5761 52.9003 26.9881 50.8603 25.8121C48.8203 24.6121 47.2003 22.9921 46.0003 20.9521C44.8243 18.9121 44.2363 16.6801 44.2363 14.2561C44.2363 11.8321 44.8243 9.60012 46.0003 7.56012C47.2003 5.52012 48.8203 3.91212 50.8603 2.73612C52.9003 1.53612 55.1323 0.936121 57.5563 0.936121C59.9803 0.936121 62.2123 1.53612 64.2523 2.73612C66.2923 3.91212 67.9003 5.52012 69.0763 7.56012C70.2763 9.60012 70.8763 11.8321 70.8763 14.2561C70.8763 16.6801 70.2763 18.9121 69.0763 20.9521C67.9003 22.9921 66.2923 24.6121 64.2523 25.8121C62.2123 26.9881 59.9803 27.5761 57.5563 27.5761ZM57.4123 26.0641C59.0683 26.0641 60.4963 25.4761 61.6963 24.3001C62.8963 23.1001 63.7963 21.5521 64.3963 19.6561C65.0203 17.7601 65.3323 15.7561 65.3323 13.6441C65.3323 11.4841 65.0203 9.55212 64.3963 7.84812C63.7963 6.14412 62.9443 4.82412 61.8403 3.88812C60.7363 2.92812 59.4763 2.44812 58.0603 2.44812C56.4283 2.44812 55.0123 3.03612 53.8123 4.21212C52.6363 5.38812 51.7363 6.92412 51.1123 8.82012C50.5123 10.7161 50.2123 12.7081 50.2123 14.7961C50.2123 16.9801 50.5123 18.9361 51.1123 20.6641C51.7363 22.3681 52.5883 23.7001 53.6683 24.6601C54.7723 25.5961 56.0203 26.0641 57.4123 26.0641ZM86.7452 27.0001V26.8561V26.7481C86.7932 26.6041 86.8172 26.4241 86.8172 26.2081C86.8172 25.9681 86.7572 25.6081 86.6372 25.1281C86.5412 24.6481 86.3612 24.0121 86.0972 23.2201L79.8692 4.82412H80.5532L73.8572 23.2201C73.5692 24.0361 73.3532 24.6961 73.2092 25.2001C73.0652 25.7041 72.9812 26.0641 72.9572 26.2801C72.9332 26.4961 72.9332 26.6641 72.9572 26.7841V26.8561V27.0001H70.6892V26.8561C70.7372 26.7601 70.8212 26.6041 70.9412 26.3881C71.0372 26.1721 71.1932 25.8121 71.4092 25.3081C71.6252 24.7801 71.8892 24.0841 72.2012 23.2201L80.1932 1.80012C80.9372 1.80012 81.6812 1.71612 82.4252 1.54812C83.1692 1.38012 83.7572 1.12812 84.1892 0.79212L91.8212 23.2201C92.1092 24.0841 92.3492 24.7801 92.5412 25.3081C92.7332 25.8361 92.8772 26.2081 92.9732 26.4241C93.0692 26.6161 93.1412 26.7601 93.1892 26.8561V27.0001H86.7452ZM116.052 1.80012V1.94412C116.004 2.23212 115.968 2.53212 115.944 2.84412C115.92 3.13212 115.896 3.49212 115.872 3.92412C115.872 4.35612 115.872 4.90812 115.872 5.58012V23.2201C115.872 23.8921 115.872 24.4441 115.872 24.8761C115.896 25.3081 115.92 25.6801 115.944 25.9921C115.968 26.2801 116.004 26.5681 116.052 26.8561V27.0001H110.22V26.8561C110.292 26.5681 110.34 26.2801 110.364 25.9921C110.412 25.6801 110.436 25.3081 110.436 24.8761C110.46 24.4441 110.472 23.8921 110.472 23.2201V2.73612L111.048 3.31212H99.816L100.392 2.73612V23.2201C100.392 23.8921 100.392 24.4441 100.392 24.8761C100.416 25.3081 100.44 25.6801 100.464 25.9921C100.512 26.2801 100.572 26.5681 100.644 26.8561V27.0001H94.812V26.8561C94.86 26.5681 94.896 26.2801 94.92 25.9921C94.944 25.6801 94.956 25.3081 94.956 24.8761C94.98 24.4441 94.992 23.8921 94.992 23.2201V5.58012C94.992 4.90812 94.98 4.35612 94.956 3.92412C94.956 3.49212 94.944 3.13212 94.92 2.84412C94.896 2.53212 94.86 2.23212 94.812 1.94412V1.80012H116.052ZM132.439 27.5761C130.015 27.5761 127.783 26.9881 125.743 25.8121C123.703 24.6121 122.083 22.9921 120.883 20.9521C119.707 18.9121 119.119 16.6801 119.119 14.2561C119.119 11.8321 119.707 9.60012 120.883 7.56012C122.083 5.52012 123.703 3.91212 125.743 2.73612C127.783 1.53612 130.015 0.936121 132.439 0.936121C134.863 0.936121 137.095 1.53612 139.135 2.73612C141.175 3.91212 142.783 5.52012 143.959 7.56012C145.159 9.60012 145.759 11.8321 145.759 14.2561C145.759 16.6801 145.159 18.9121 143.959 20.9521C142.783 22.9921 141.175 24.6121 139.135 25.8121C137.095 26.9881 134.863 27.5761 132.439 27.5761ZM132.295 26.0641C133.951 26.0641 135.379 25.4761 136.579 24.3001C137.779 23.1001 138.679 21.5521 139.279 19.6561C139.903 17.7601 140.215 15.7561 140.215 13.6441C140.215 11.4841 139.903 9.55212 139.279 7.84812C138.679 6.14412 137.827 4.82412 136.723 3.88812C135.619 2.92812 134.359 2.44812 132.943 2.44812C131.311 2.44812 129.895 3.03612 128.695 4.21212C127.519 5.38812 126.619 6.92412 125.995 8.82012C125.395 10.7161 125.095 12.7081 125.095 14.7961C125.095 16.9801 125.395 18.9361 125.995 20.6641C126.619 22.3681 127.471 23.7001 128.551 24.6601C129.655 25.5961 130.903 26.0641 132.295 26.0641ZM164.832 1.80012V3.56412H164.688C164.4 3.49212 164.112 3.44412 163.824 3.42012C163.56 3.37212 163.224 3.34812 162.816 3.34812C162.432 3.32412 161.964 3.31212 161.412 3.31212H158.676L159.252 2.73612V23.2201C159.252 23.8681 159.252 24.4081 159.252 24.8401C159.276 25.2481 159.3 25.5961 159.324 25.8841C159.372 26.1481 159.42 26.4121 159.468 26.6761L159.504 26.8561V27.0001H153.6V26.8561L153.636 26.6761C153.684 26.4121 153.72 26.1481 153.744 25.8841C153.792 25.5961 153.816 25.2481 153.816 24.8401C153.84 24.4081 153.852 23.8681 153.852 23.2201V2.73612L154.428 3.31212H151.692C151.14 3.31212 150.66 3.32412 150.252 3.34812C149.868 3.34812 149.532 3.37212 149.244 3.42012C148.98 3.44412 148.704 3.49212 148.416 3.56412H148.272V1.80012H164.832ZM172.392 26.0641L171.816 25.4881H176.172C177.924 25.4881 179.316 24.9241 180.348 23.7961C181.404 22.6441 181.932 21.1441 181.932 19.2961C181.932 17.3521 181.296 15.8401 180.024 14.7601C178.752 13.6561 176.964 13.0081 174.66 12.8161L173.832 12.7441V11.8081L174.264 11.7361C175.752 11.4961 176.904 11.0161 177.72 10.2961C178.536 9.55212 178.944 8.50812 178.944 7.16412C178.944 5.96412 178.548 5.02812 177.756 4.35612C176.964 3.66012 175.884 3.31212 174.516 3.31212H171.816L172.392 2.73612V26.0641ZM176.424 1.80012C178.752 1.80012 180.588 2.28012 181.932 3.24012C183.3 4.20012 183.984 5.54412 183.984 7.27212C183.984 8.54412 183.516 9.63612 182.58 10.5481C181.668 11.4361 180.444 11.9641 178.908 12.1321L178.944 11.8441C180.504 11.8441 181.92 12.1321 183.192 12.7081C184.464 13.2841 185.472 14.1121 186.216 15.1921C186.96 16.2721 187.332 17.5201 187.332 18.9361C187.332 20.5681 186.912 21.9961 186.072 23.2201C185.256 24.4441 184.08 25.3801 182.544 26.0281C181.032 26.6761 179.244 27.0001 177.18 27.0001H166.812V26.8561C166.86 26.5681 166.896 26.2801 166.92 25.9921C166.944 25.6801 166.956 25.3081 166.956 24.8761C166.98 24.4441 166.992 23.8921 166.992 23.2201V5.58012C166.992 4.90812 166.98 4.35612 166.956 3.92412C166.956 3.49212 166.944 3.13212 166.92 2.84412C166.896 2.53212 166.86 2.23212 166.812 1.94412V1.80012H176.424ZM202.435 27.5761C200.011 27.5761 197.779 26.9881 195.739 25.8121C193.699 24.6121 192.079 22.9921 190.879 20.9521C189.703 18.9121 189.115 16.6801 189.115 14.2561C189.115 11.8321 189.703 9.60012 190.879 7.56012C192.079 5.52012 193.699 3.91212 195.739 2.73612C197.779 1.53612 200.011 0.936121 202.435 0.936121C204.859 0.936121 207.091 1.53612 209.131 2.73612C211.171 3.91212 212.779 5.52012 213.955 7.56012C215.155 9.60012 215.755 11.8321 215.755 14.2561C215.755 16.6801 215.155 18.9121 213.955 20.9521C212.779 22.9921 211.171 24.6121 209.131 25.8121C207.091 26.9881 204.859 27.5761 202.435 27.5761ZM202.291 26.0641C203.947 26.0641 205.375 25.4761 206.575 24.3001C207.775 23.1001 208.675 21.5521 209.275 19.6561C209.899 17.7601 210.211 15.7561 210.211 13.6441C210.211 11.4841 209.899 9.55212 209.275 7.84812C208.675 6.14412 207.823 4.82412 206.719 3.88812C205.615 2.92812 204.355 2.44812 202.939 2.44812C201.307 2.44812 199.891 3.03612 198.691 4.21212C197.515 5.38812 196.615 6.92412 195.991 8.82012C195.391 10.7161 195.091 12.7081 195.091 14.7961C195.091 16.9801 195.391 18.9361 195.991 20.6641C196.615 22.3681 197.467 23.7001 198.547 24.6601C199.651 25.5961 200.899 26.0641 202.291 26.0641ZM228.132 1.80012C231.252 1.80012 233.724 2.50812 235.548 3.92412C237.372 5.34012 238.284 7.28412 238.284 9.75612C238.284 11.5561 237.792 13.1041 236.808 14.4001C235.848 15.6721 234.564 16.6321 232.956 17.2801C231.372 17.9281 229.656 18.2521 227.808 18.2521C227.472 18.2521 227.136 18.2401 226.8 18.2161C226.488 18.1921 226.164 18.1561 225.828 18.1081V17.0281C225.924 17.0281 225.996 17.0281 226.044 17.0281C226.116 17.0281 226.2 17.0281 226.296 17.0281C227.592 17.0281 228.732 16.7521 229.716 16.2001C230.724 15.6481 231.504 14.8441 232.056 13.7881C232.608 12.7321 232.884 11.4841 232.884 10.0441C232.884 8.60412 232.656 7.38012 232.2 6.37212C231.744 5.36412 231.072 4.60812 230.184 4.10412C229.296 3.57612 228.216 3.31212 226.944 3.31212H223.812L224.388 2.73612V23.2201C224.388 23.8921 224.388 24.4441 224.388 24.8761C224.412 25.3081 224.436 25.6801 224.46 25.9921C224.484 26.2801 224.52 26.5681 224.568 26.8561V27.0001H218.808V26.8561C218.856 26.5681 218.892 26.2801 218.916 25.9921C218.94 25.6801 218.952 25.3081 218.952 24.8761C218.976 24.4441 218.988 23.8921 218.988 23.2201V5.58012C218.988 4.90812 218.976 4.35612 218.952 3.92412C218.952 3.49212 218.94 3.13212 218.916 2.84412C218.892 2.53212 218.856 2.23212 218.808 1.94412V1.80012H228.132ZM255.846 1.80012V3.67212H255.702C255.39 3.55212 255.102 3.46812 254.838 3.42012C254.574 3.37212 254.238 3.34812 253.83 3.34812C253.422 3.32412 252.954 3.31212 252.426 3.31212H245.082L245.658 2.73612V10.0441L245.082 9.46812H253.038V10.9801H245.082L245.658 10.4041V26.0641L245.082 25.4881H253.758C254.31 25.4881 254.778 25.4881 255.162 25.4881C255.57 25.4641 255.906 25.4401 256.17 25.4161C256.458 25.3681 256.746 25.3081 257.034 25.2361H257.178V27.0001H240.078V26.8561C240.126 26.5681 240.162 26.2801 240.186 25.9921C240.21 25.6801 240.222 25.3081 240.222 24.8761C240.246 24.4441 240.258 23.8921 240.258 23.2201V5.58012C240.258 4.90812 240.246 4.35612 240.222 3.92412C240.222 3.49212 240.21 3.13212 240.186 2.84412C240.162 2.53212 240.126 2.23212 240.078 1.94412V1.80012H255.846ZM280.935 1.80012V1.94412C280.887 2.23212 280.851 2.53212 280.827 2.84412C280.803 3.13212 280.779 3.49212 280.755 3.92412C280.755 4.35612 280.755 4.90812 280.755 5.58012V23.2201C280.755 23.8921 280.755 24.4441 280.755 24.8761C280.779 25.3081 280.803 25.6801 280.827 25.9921C280.851 26.2801 280.887 26.5681 280.935 26.8561V27.0001H275.103V26.8561C275.175 26.5681 275.223 26.2801 275.247 25.9921C275.295 25.6801 275.319 25.3081 275.319 24.8761C275.343 24.4441 275.355 23.8921 275.355 23.2201V5.58012C275.355 4.90812 275.343 4.35612 275.319 3.92412C275.319 3.49212 275.295 3.13212 275.247 2.84412C275.223 2.53212 275.175 2.23212 275.103 1.94412V1.80012H280.935ZM276.615 9.46812V10.9801H264.015V9.46812H276.615ZM265.527 1.80012V1.94412C265.455 2.23212 265.395 2.53212 265.347 2.84412C265.323 3.13212 265.299 3.49212 265.275 3.92412C265.275 4.35612 265.275 4.90812 265.275 5.58012V23.2201C265.275 23.8921 265.275 24.4441 265.275 24.8761C265.299 25.3081 265.323 25.6801 265.347 25.9921C265.395 26.2801 265.455 26.5681 265.527 26.8561V27.0001H259.695V26.8561C259.743 26.5681 259.779 26.2801 259.803 25.9921C259.827 25.6801 259.839 25.3081 259.839 24.8761C259.863 24.4441 259.875 23.8921 259.875 23.2201V5.58012C259.875 4.90812 259.863 4.35612 259.839 3.92412C259.839 3.49212 259.827 3.13212 259.803 2.84412C259.779 2.53212 259.743 2.23212 259.695 1.94412V1.80012H265.527ZM290.842 1.80012V1.94412C290.77 2.23212 290.71 2.53212 290.662 2.84412C290.638 3.13212 290.614 3.49212 290.59 3.92412C290.59 4.35612 290.59 4.90812 290.59 5.58012V21.5281H288.826L306.07 1.80012H307.222C307.126 2.18412 307.054 2.56812 307.006 2.95212C306.982 3.33612 306.958 4.04412 306.934 5.07612C306.934 6.08412 306.934 7.39212 306.934 9.00012V23.2201C306.934 23.8921 306.934 24.4441 306.934 24.8761C306.958 25.3081 306.982 25.6801 307.006 25.9921C307.03 26.2801 307.066 26.5681 307.114 26.8561V27.0001H301.282V26.8561C301.354 26.5681 301.402 26.2801 301.426 25.9921C301.474 25.6801 301.498 25.3081 301.498 24.8761C301.522 24.4441 301.534 23.8921 301.534 23.2201V7.27212H303.298L286.054 27.0001H284.902C284.998 26.6641 285.058 26.3401 285.082 26.0281C285.13 25.7161 285.154 25.3681 285.154 24.9841C285.178 24.5761 285.19 24.1081 285.19 23.5801V5.58012C285.19 4.90812 285.178 4.35612 285.154 3.92412C285.154 3.49212 285.142 3.13212 285.118 2.84412C285.094 2.53212 285.058 2.23212 285.01 1.94412V1.80012H290.842ZM326.967 1.80012V3.67212H326.823C326.511 3.55212 326.223 3.46812 325.959 3.42012C325.695 3.37212 325.359 3.34812 324.951 3.34812C324.543 3.32412 324.075 3.31212 323.547 3.31212H316.203L316.779 2.73612V10.0441L316.203 9.46812H324.159V10.9801H316.203L316.779 10.4041V26.0641L316.203 25.4881H324.879C325.431 25.4881 325.899 25.4881 326.283 25.4881C326.691 25.4641 327.027 25.4401 327.291 25.4161C327.579 25.3681 327.867 25.3081 328.155 25.2361H328.299V27.0001H311.199V26.8561C311.247 26.5681 311.283 26.2801 311.307 25.9921C311.331 25.6801 311.343 25.3081 311.343 24.8761C311.367 24.4441 311.379 23.8921 311.379 23.2201V5.58012C311.379 4.90812 311.367 4.35612 311.343 3.92412C311.343 3.49212 311.331 3.13212 311.307 2.84412C311.283 2.53212 311.247 2.23212 311.199 1.94412V1.80012H326.967Z" fill="#1C1311"/>
</svg>
