<svg width="32" height="32" viewBox="0 0 32 32" fill="none" xmlns="http://www.w3.org/2000/svg">
<path d="M7.09125 15.68L7.53125 15.56C6.81125 12.6267 6.61125 10.2 6.93125 8.28C7.25125 6.33333 7.93125 4.90666 8.97125 4C10.0113 3.09333 11.2646 2.64 12.7313 2.64C14.9446 2.64 16.8913 3.37333 18.5713 4.84C20.2246 6.30667 21.5046 8.2 22.4113 10.52C23.2913 12.8133 23.7313 15.2 23.7313 17.68C23.7313 20.08 23.2913 22.1467 22.4113 23.88C21.5313 25.5867 20.3713 26.88 18.9313 27.76C17.4646 28.6133 15.9046 29.04 14.2513 29.04C12.7046 29.04 11.2112 28.6533 9.77125 27.88C8.33125 27.08 7.09125 25.8933 6.05125 24.32C5.01125 22.72 4.30458 20.7867 3.93125 18.52L3.45125 18.52L3.45125 26.04C4.86458 27.4533 6.53125 28.5733 8.45125 29.4C10.3713 30.2267 12.4246 30.64 14.6113 30.64C17.3046 30.64 19.7846 29.9867 22.0513 28.68C24.2913 27.3467 26.0646 25.5467 27.3713 23.28C28.6779 21.0133 29.3313 18.5333 29.3313 15.84C29.3313 13.1467 28.6779 10.6667 27.3713 8.4C26.0646 6.13333 24.2913 4.34667 22.0513 3.04C19.7846 1.70667 17.3046 1.04 14.6112 1.04C12.4246 1.04 10.3712 1.45333 8.45125 2.28C6.53125 3.10666 4.86458 4.22666 3.45125 5.64L7.09125 15.68Z" fill="#374536"/>
</svg>
