<svg width="100" height="100" viewBox="0 0 100 100" fill="none" xmlns="http://www.w3.org/2000/svg">
<path d="M10.4166 50C10.4166 31.3402 10.4166 22.0103 16.2135 16.2135C22.0103 10.4167 31.3402 10.4167 50 10.4167C68.6597 10.4167 77.9896 10.4167 83.7864 16.2135C89.5833 22.0103 89.5833 31.3402 89.5833 50C89.5833 68.6598 89.5833 77.9896 83.7864 83.7865C77.9896 89.5833 68.6597 89.5833 50 89.5833C31.3402 89.5833 22.0103 89.5833 16.2135 83.7865C10.4166 77.9896 10.4166 68.6598 10.4166 50Z" stroke="#FCE7CC" stroke-width="5" stroke-linejoin="round"/>
<path d="M68.75 50C68.75 60.3553 60.3553 68.75 50 68.75C39.6447 68.75 31.25 60.3553 31.25 50C31.25 39.6447 39.6447 31.25 50 31.25C60.3553 31.25 68.75 39.6447 68.75 50Z" stroke="#FCE7CC" stroke-width="5"/>
<path d="M72.9492 27.0833L72.9118 27.0833" stroke="#FCE7CC" stroke-width="10" stroke-linecap="round" stroke-linejoin="round"/>
</svg>
