<svg width="100" height="100" viewBox="0 0 100 100" fill="none" xmlns="http://www.w3.org/2000/svg">
<path d="M58.3333 44.7857V29.3869C58.3333 25.9177 57.7035 25.2202 54.2483 25.2202L44.4566 25.0004C41.4085 25.0004 39.8845 25.0004 39.2685 25.9885C38.6525 26.9765 39.3341 28.3278 40.6972 31.0304C41.4543 32.5315 41.8589 33.6185 41.8589 35.3009V46.3814C41.8589 49.8854 41.8589 51.6374 40.5276 52.1573C39.1962 52.6771 38.0898 51.501 35.877 49.1486C30.4534 43.3829 27.6306 36.1846 25.775 28.3391C25.3907 26.7142 25.1985 25.9018 24.6249 25.4511C24.0514 25.0004 23.2345 25.0004 21.6007 25.0004H12.4371C10.4267 25.0004 9.42146 25.0004 8.79355 25.7112C8.16563 26.4221 8.28738 27.3288 8.53087 29.1421C10.7277 45.503 25.1166 72.3312 51.6975 74.8905C56.4051 75.3437 58.3333 74.0714 58.3333 68.9131C58.3333 65.9891 58.2712 61.2619 61.9509 60.6425C63.8775 60.3182 65.1752 61.0024 67.3307 62.8102C71.0645 65.9418 73.0196 69.7643 74.382 72.6693C75.2859 74.5967 75.9577 75 78.0815 75H86.7241C91.0907 75 92.2805 73.9342 90.3355 69.8355C87.873 64.6462 84.3682 60.5237 81.1817 57.779C78.5351 55.4994 77.2118 54.3596 77.1378 53.5207C77.0638 52.6819 78.0348 51.4941 79.9768 49.1186C83.7283 44.5296 88.8341 37.3242 91.2175 29.6784C92.3983 25.8907 91.2872 25.0004 87.4501 25.0004H79.6869C75.9265 25.0004 75.9292 24.8703 75.0414 29.1366C73.6009 36.0594 68.8821 42.7131 64.4495 47.2425C62.3469 49.3911 61.0755 50.6852 59.7635 50.158C58.4514 49.6307 58.3333 48.0157 58.3333 44.7857Z" stroke="#FCE7CC" stroke-width="5" stroke-linecap="round" stroke-linejoin="round"/>
</svg>
