<svg width="50" height="50" viewBox="0 0 50 50" fill="none" xmlns="http://www.w3.org/2000/svg">
<path d="M32.2917 22.9167C32.2917 26.9437 29.0271 30.2083 25 30.2083C20.973 30.2083 17.7084 26.9437 17.7084 22.9167C17.7084 18.8896 20.973 15.625 25 15.625C29.0271 15.625 32.2917 18.8896 32.2917 22.9167Z" stroke="#FCE7CC" stroke-width="2.5"/>
<path d="M25 4.16667C35.147 4.16667 43.75 12.5687 43.75 22.762C43.75 33.1177 35.0069 40.3848 26.9312 45.3264C26.3427 45.6586 25.6772 45.8333 25 45.8333C24.3228 45.8333 23.6573 45.6586 23.0687 45.3264C15.0081 40.3366 6.25 33.1535 6.25 22.762C6.25 12.5687 14.853 4.16667 25 4.16667Z" stroke="#FCE7CC" stroke-width="2.5"/>
</svg>
