<svg width="100" height="100" viewBox="0 0 100 100" fill="none" xmlns="http://www.w3.org/2000/svg">
<path d="M49.9393 64.2013L63.445 79.5565C68.4489 85.2456 70.9508 88.0902 73.5697 87.3977C76.1886 86.7051 77.0866 82.9615 78.8826 75.4743L88.8454 33.9413C91.6116 22.4097 92.9947 16.6439 89.9202 13.8C86.8458 10.9561 81.5168 13.0719 70.8588 17.3034L21.4115 36.9354C12.8872 40.3198 8.62507 42.012 8.35448 44.9202C8.3268 45.2176 8.32634 45.5172 8.35311 45.8147C8.61479 48.7238 12.8718 50.4302 21.3857 53.843C25.2433 55.3893 27.1721 56.1625 28.5551 57.6432C28.7105 57.8097 28.86 57.9821 29.0033 58.16C30.2775 59.7432 30.8212 61.8211 31.9087 65.9768L33.9439 73.7541C35.0021 77.798 35.5312 79.8199 36.917 80.0956C38.3028 80.3713 39.5094 78.6947 41.9225 75.3414L49.9393 64.2013ZM49.9393 64.2013L48.6151 62.8212C47.1081 61.2506 46.3546 60.4653 46.3546 59.4894C46.3546 58.5136 47.1081 57.7283 48.6151 56.1577L63.5025 40.6421" stroke="#FCE7CC" stroke-width="5" stroke-linecap="round" stroke-linejoin="round"/>
</svg>
